name rise37.2698peak67.6939fall79.5734.mot
datacolumns 19
datarows 33
range 7.11830400000000 7.17164300000000
endheader
time	ground_force1_vx	ground_force1_vy	ground_force1_vz	ground_force1_px	ground_force1_py	ground_force1_pz	ground_force2_vx	ground_force2_vy	ground_force2_vz	ground_force2_px	ground_force2_py	ground_force2_pz	ground_torque1_x	ground_torque1_y	ground_torque1_z	ground_torque2_x	ground_torque2_y	ground_torque2_z	
7.11830400000000	63.83080300000000	792.69732099999999	58.99104500000000	0.30759700000000	0.00000000000000	0.10978700000000	0.00000000000000	0.00000000000000	0.00000000000000	0.00000000000000	0.00000000000000	0.00000000000000	0.00000000000000	21.86342100000000	0.00000000000000	0.00000000000000	0.00000000000000	0.00000000000000	
7.11997800000000	63.17622200000000	794.54260099999999	59.07431100000000	0.30682900000000	0.00000000000000	0.10972700000000	0.00000000000000	0.00000000000000	0.00000000000000	0.00000000000000	0.00000000000000	0.00000000000000	0.00000000000000	21.92930500000000	0.00000000000000	0.00000000000000	0.00000000000000	0.00000000000000	
7.12164300000000	62.52502000000000	796.24049100000002	59.15344800000000	0.30608100000000	0.00000000000000	0.10966700000000	0.00000000000000	0.00000000000000	0.00000000000000	0.00000000000000	0.00000000000000	0.00000000000000	0.00000000000000	21.99369600000000	0.00000000000000	0.00000000000000	0.00000000000000	0.00000000000000	
7.12330500000000	61.87734800000000	797.79056200000002	59.22828300000000	0.30535100000000	0.00000000000000	0.10960700000000	0.00000000000000	0.00000000000000	0.00000000000000	0.00000000000000	0.00000000000000	0.00000000000000	0.00000000000000	22.05638600000000	0.00000000000000	0.00000000000000	0.00000000000000	0.00000000000000	
7.12497100000000	61.23328800000000	799.19257100000004	59.29859300000000	0.30463700000000	0.00000000000000	0.10954600000000	0.00000000000000	0.00000000000000	0.00000000000000	0.00000000000000	0.00000000000000	0.00000000000000	0.00000000000000	22.11714700000000	0.00000000000000	0.00000000000000	0.00000000000000	0.00000000000000	
7.12664000000000	60.59285100000000	800.44646999999998	59.36411000000000	0.30393700000000	0.00000000000000	0.10948600000000	0.00000000000000	0.00000000000000	0.00000000000000	0.00000000000000	0.00000000000000	0.00000000000000	0.00000000000000	22.17572400000000	0.00000000000000	0.00000000000000	0.00000000000000	0.00000000000000	
7.12830400000000	59.95598500000000	801.55241100000001	59.42452500000000	0.30324800000000	0.00000000000000	0.10942500000000	0.00000000000000	0.00000000000000	0.00000000000000	0.00000000000000	0.00000000000000	0.00000000000000	0.00000000000000	22.23184400000000	0.00000000000000	0.00000000000000	0.00000000000000	0.00000000000000	
7.12998600000000	59.32258300000000	802.51076000000000	59.47949300000000	0.30256800000000	0.00000000000000	0.10936400000000	0.00000000000000	0.00000000000000	0.00000000000000	0.00000000000000	0.00000000000000	0.00000000000000	0.00000000000000	22.28521600000000	0.00000000000000	0.00000000000000	0.00000000000000	0.00000000000000	
7.13164500000000	58.69248300000000	803.32210199999997	59.52863800000000	0.30189300000000	0.00000000000000	0.10930300000000	0.00000000000000	0.00000000000000	0.00000000000000	0.00000000000000	0.00000000000000	0.00000000000000	0.00000000000000	22.33553500000000	0.00000000000000	0.00000000000000	0.00000000000000	0.00000000000000	
7.13330600000000	58.06547800000000	803.98724600000003	59.57155500000000	0.30122300000000	0.00000000000000	0.10924200000000	0.00000000000000	0.00000000000000	0.00000000000000	0.00000000000000	0.00000000000000	0.00000000000000	0.00000000000000	22.38248100000000	0.00000000000000	0.00000000000000	0.00000000000000	0.00000000000000	
7.13497500000000	57.44131800000000	804.50723200000004	59.60781600000000	0.30055400000000	0.00000000000000	0.10918200000000	0.00000000000000	0.00000000000000	0.00000000000000	0.00000000000000	0.00000000000000	0.00000000000000	0.00000000000000	22.42572900000000	0.00000000000000	0.00000000000000	0.00000000000000	0.00000000000000	
7.13664400000000	56.81971900000000	804.88333599999999	59.63697800000000	0.29988400000000	0.00000000000000	0.10912100000000	0.00000000000000	0.00000000000000	0.00000000000000	0.00000000000000	0.00000000000000	0.00000000000000	0.00000000000000	22.46494500000000	0.00000000000000	0.00000000000000	0.00000000000000	0.00000000000000	
7.13830600000000	56.20036700000000	805.11706800000002	59.65858100000000	0.29921100000000	0.00000000000000	0.10906000000000	0.00000000000000	0.00000000000000	0.00000000000000	0.00000000000000	0.00000000000000	0.00000000000000	0.00000000000000	22.49979200000000	0.00000000000000	0.00000000000000	0.00000000000000	0.00000000000000	
7.13997800000000	55.58292500000000	805.21018000000004	59.67216000000000	0.29853100000000	0.00000000000000	0.10900000000000	0.00000000000000	0.00000000000000	0.00000000000000	0.00000000000000	0.00000000000000	0.00000000000000	0.00000000000000	22.52993400000000	0.00000000000000	0.00000000000000	0.00000000000000	0.00000000000000	
7.14163800000000	54.96703700000000	805.16466300000002	59.67724400000000	0.29784200000000	0.00000000000000	0.10893900000000	0.00000000000000	0.00000000000000	0.00000000000000	0.00000000000000	0.00000000000000	0.00000000000000	0.00000000000000	22.55503600000000	0.00000000000000	0.00000000000000	0.00000000000000	0.00000000000000	
7.14331200000000	54.35233400000000	804.98274500000002	59.67336400000000	0.29714300000000	0.00000000000000	0.10887900000000	0.00000000000000	0.00000000000000	0.00000000000000	0.00000000000000	0.00000000000000	0.00000000000000	0.00000000000000	22.57476800000000	0.00000000000000	0.00000000000000	0.00000000000000	0.00000000000000	
7.14497300000000	53.73844100000000	804.66689399999996	59.66005900000000	0.29643100000000	0.00000000000000	0.10881900000000	0.00000000000000	0.00000000000000	0.00000000000000	0.00000000000000	0.00000000000000	0.00000000000000	0.00000000000000	22.58881100000000	0.00000000000000	0.00000000000000	0.00000000000000	0.00000000000000	
7.14663800000000	53.12498300000000	804.21980799999994	59.63687500000000	0.29570300000000	0.00000000000000	0.10875900000000	0.00000000000000	0.00000000000000	0.00000000000000	0.00000000000000	0.00000000000000	0.00000000000000	0.00000000000000	22.59685500000000	0.00000000000000	0.00000000000000	0.00000000000000	0.00000000000000	
7.14830500000000	52.51158500000000	803.64441799999997	59.60337500000000	0.29495700000000	0.00000000000000	0.10869900000000	0.00000000000000	0.00000000000000	0.00000000000000	0.00000000000000	0.00000000000000	0.00000000000000	0.00000000000000	22.59860300000000	0.00000000000000	0.00000000000000	0.00000000000000	0.00000000000000	
7.14997800000000	51.89788500000000	802.94387700000004	59.55913800000000	0.29419200000000	0.00000000000000	0.10863900000000	0.00000000000000	0.00000000000000	0.00000000000000	0.00000000000000	0.00000000000000	0.00000000000000	0.00000000000000	22.59377500000000	0.00000000000000	0.00000000000000	0.00000000000000	0.00000000000000	
7.15164500000000	51.28353100000000	802.12155800000005	59.50377000000000	0.29340500000000	0.00000000000000	0.10857900000000	0.00000000000000	0.00000000000000	0.00000000000000	0.00000000000000	0.00000000000000	0.00000000000000	0.00000000000000	22.58211200000000	0.00000000000000	0.00000000000000	0.00000000000000	0.00000000000000	
7.15330900000000	50.66819100000000	801.18104300000005	59.43690000000000	0.29259400000000	0.00000000000000	0.10851900000000	0.00000000000000	0.00000000000000	0.00000000000000	0.00000000000000	0.00000000000000	0.00000000000000	0.00000000000000	22.56337300000000	0.00000000000000	0.00000000000000	0.00000000000000	0.00000000000000	
7.15497500000000	50.05155500000000	800.12611700000002	59.35818700000000	0.29175900000000	0.00000000000000	0.10845900000000	0.00000000000000	0.00000000000000	0.00000000000000	0.00000000000000	0.00000000000000	0.00000000000000	0.00000000000000	22.53734200000000	0.00000000000000	0.00000000000000	0.00000000000000	0.00000000000000	
7.15664500000000	49.43333900000000	798.96075499999995	59.26732700000000	0.29089600000000	0.00000000000000	0.10839900000000	0.00000000000000	0.00000000000000	0.00000000000000	0.00000000000000	0.00000000000000	0.00000000000000	0.00000000000000	22.50382900000000	0.00000000000000	0.00000000000000	0.00000000000000	0.00000000000000	
7.15830900000000	48.81329000000000	797.68911600000001	59.16404700000000	0.29000500000000	0.00000000000000	0.10834000000000	0.00000000000000	0.00000000000000	0.00000000000000	0.00000000000000	0.00000000000000	0.00000000000000	0.00000000000000	22.46266800000000	0.00000000000000	0.00000000000000	0.00000000000000	0.00000000000000	
7.15997800000000	48.19118500000000	796.31553099999996	59.04811600000000	0.28908500000000	0.00000000000000	0.10828000000000	0.00000000000000	0.00000000000000	0.00000000000000	0.00000000000000	0.00000000000000	0.00000000000000	0.00000000000000	22.41372700000000	0.00000000000000	0.00000000000000	0.00000000000000	0.00000000000000	
7.16164300000000	47.56684100000000	794.84448599999996	58.91934400000000	0.28813400000000	0.00000000000000	0.10822000000000	0.00000000000000	0.00000000000000	0.00000000000000	0.00000000000000	0.00000000000000	0.00000000000000	0.00000000000000	22.35689900000000	0.00000000000000	0.00000000000000	0.00000000000000	0.00000000000000	
7.16330700000000	46.94011200000000	793.28061800000000	58.77758300000000	0.28715100000000	0.00000000000000	0.10816000000000	0.00000000000000	0.00000000000000	0.00000000000000	0.00000000000000	0.00000000000000	0.00000000000000	0.00000000000000	22.29211300000000	0.00000000000000	0.00000000000000	0.00000000000000	0.00000000000000	
7.16497700000000	46.31089100000000	791.62869300000000	58.62273200000000	0.28613600000000	0.00000000000000	0.10810000000000	0.00000000000000	0.00000000000000	0.00000000000000	0.00000000000000	0.00000000000000	0.00000000000000	0.00000000000000	22.21932700000000	0.00000000000000	0.00000000000000	0.00000000000000	0.00000000000000	
7.16664000000000	45.67911500000000	789.89359700000000	58.45473400000000	0.28508700000000	0.00000000000000	0.10803900000000	0.00000000000000	0.00000000000000	0.00000000000000	0.00000000000000	0.00000000000000	0.00000000000000	0.00000000000000	22.13853400000000	0.00000000000000	0.00000000000000	0.00000000000000	0.00000000000000	
7.16831100000000	45.04476600000000	788.08032400000002	58.27358200000000	0.28400600000000	0.00000000000000	0.10797900000000	0.00000000000000	0.00000000000000	0.00000000000000	0.00000000000000	0.00000000000000	0.00000000000000	0.00000000000000	22.04976100000000	0.00000000000000	0.00000000000000	0.00000000000000	0.00000000000000	
7.16997900000000	44.40786900000000	786.19395199999997	58.07931400000000	0.28289100000000	0.00000000000000	0.10791800000000	0.00000000000000	0.00000000000000	0.00000000000000	0.00000000000000	0.00000000000000	0.00000000000000	0.00000000000000	21.95306900000000	0.00000000000000	0.00000000000000	0.00000000000000	0.00000000000000	
7.17164300000000	43.76849700000000	784.23964000000001	57.87202000000000	0.28174200000000	0.00000000000000	0.10785700000000	0.00000000000000	0.00000000000000	0.00000000000000	0.00000000000000	0.00000000000000	0.00000000000000	0.00000000000000	21.84855100000000	0.00000000000000	0.00000000000000	0.00000000000000	0.00000000000000	
